<svg width="20" height="20" viewBox="0 0 20 20" fill="none" xmlns="http://www.w3.org/2000/svg">
<path fill-rule="evenodd" clip-rule="evenodd" d="M16.0665 0.536276C16.0046 0.621222 15.7489 1.16647 15.4982 1.74784C15.0796 2.71854 15.0185 2.81473 14.7502 2.92481C14.5895 2.99064 14.0823 3.19145 13.6231 3.37106C12.6692 3.744 12.5795 3.7982 12.5795 4.00189C12.5795 4.18543 12.7017 4.25087 13.9899 4.75653L15.0245 5.16272L15.5169 6.28492C15.7878 6.90219 16.0575 7.4537 16.1163 7.51054C16.325 7.71207 16.4897 7.50532 16.9227 6.49881C17.1637 5.93863 17.4085 5.40551 17.4668 5.31406C17.5329 5.21049 18.0136 4.97388 18.7431 4.68596C20.3923 4.03489 20.393 3.96094 18.7568 3.31493C18.1192 3.06323 17.5627 2.81521 17.5203 2.76375C17.4778 2.7122 17.2306 2.1839 16.971 1.58959C16.4304 0.352252 16.3061 0.20741 16.0665 0.536276ZM7.03594 3.0515C6.96957 3.15082 6.43175 4.15348 5.84082 5.27954L4.76634 7.32692L2.47402 8.45097C-0.825243 10.0687 -0.825326 9.96435 2.47769 11.5421L4.74688 12.626L5.90335 14.8391C7.55415 17.998 7.43894 17.9961 9.07722 14.8924C9.70104 13.7106 10.2576 12.6991 10.3142 12.6447C10.3707 12.5902 11.4013 12.0729 12.6044 11.4951C14.9958 10.3465 15.1227 10.253 14.9216 9.7861C14.8248 9.56137 14.5608 9.41276 12.5269 8.4378L10.241 7.34209L9.14568 5.24694C8.54331 4.09471 7.99288 3.08868 7.92258 3.01136C7.72872 2.79819 7.18889 2.8226 7.03594 3.0515ZM15.8459 13.0074C15.7176 13.2834 15.4844 13.8128 15.3275 14.1838C15.0765 14.7776 15.0074 14.8719 14.7502 14.9712C13.4116 15.4881 12.7659 15.7654 12.638 15.8781C12.4933 16.0057 12.4933 16.0166 12.638 16.173C12.7206 16.2623 13.0888 16.4523 13.4561 16.5951C15.0402 17.2114 15.0506 17.2176 15.2362 17.6714C15.9348 19.3797 16.1212 19.695 16.3774 19.6005C16.4368 19.5785 16.7002 19.0661 16.9626 18.4618C17.225 17.8575 17.4827 17.3191 17.5353 17.2654C17.6171 17.1819 18.9803 16.6016 19.6934 16.3466C19.9274 16.263 20.08 15.9902 19.9556 15.8778C19.867 15.7978 17.7107 14.9143 17.6041 14.9143C17.5611 14.9143 17.4517 14.7427 17.361 14.5329C16.49 12.518 16.4834 12.5056 16.2779 12.5056C16.1145 12.5056 16.0375 12.595 15.8459 13.0074Z" fill="#1F2E62"/>
</svg>
